<svg width="28" height="30" viewBox="0 0 28 30" fill="none" xmlns="http://www.w3.org/2000/svg">
<path d="M1.75 16.7573H21.2975L12.7575 26.2423C12.075 27.0003 12.075 28.2443 12.7575 29.0023C13.44 29.7603 14.5425 29.7603 15.225 29.0023L26.7575 16.1937C27.44 15.4357 27.44 14.2112 26.7575 13.4532L15.2425 0.625128C14.9155 0.261176 14.4717 0.0566406 14.0088 0.0566406C13.5458 0.0566406 13.102 0.261176 12.775 0.625128C12.0925 1.38315 12.0925 2.60764 12.775 3.36566L21.2975 12.8701H1.75C0.7875 12.8701 0 13.7447 0 14.8137C0 15.8827 0.7875 16.7573 1.75 16.7573Z" fill="#0B21E5"/>
</svg>
